HIERARCHY
ROOT pelvis
{
  OFFSET 0 100 0
  CHANNELS 6 Xposition Yposition Zposition Zrotation Xrotation Yrotation
  JOINT pelvis_right_femur
  {
    OFFSET -10.78128 -3.44521 -0.5502486
    CHANNELS 3 Zrotation Xrotation Yrotation
    JOINT right_femur_tibia
    {
      OFFSET -0.8047443 -44.0398 -0.1307829
      CHANNELS 3 Zrotation Xrotation Yrotation
      JOINT right_tibia_foot
      {
        OFFSET 3.006224 -47.83518 -5
        CHANNELS 3 Zrotation Xrotation Yrotation
        End Site
        {
          OFFSET 0 -5 15
        }
      }
    }
  }
  JOINT pelvis_left_femur
  {
    OFFSET 10.78128 -3.44521 -0.5502486
    CHANNELS 3 Zrotation Xrotation Yrotation
    JOINT left_femur_tibia
    {
      OFFSET 0.8047443 -44.0398 -0.1307829
      CHANNELS 3 Zrotation Xrotation Yrotation
      JOINT left_tibia_foot
      {
        OFFSET -4.370144 -48.10324 -4.275266
        CHANNELS 3 Zrotation Xrotation Yrotation
        End Site
        {
          OFFSET 0 -5 15
        }
      }
    }
  }
  JOINT pelvis_spine1
  {
    OFFSET 0 6.468898 -3.129235
    CHANNELS 3 Zrotation Xrotation Yrotation
    JOINT spine1
    {
      OFFSET 0 23.15396 4.99043
      CHANNELS 3 Zrotation Xrotation Yrotation
      JOINT spine2
      {
        OFFSET 0 20.79997 -5.064912
        CHANNELS 3 Zrotation Xrotation Yrotation
        JOINT neck
        {
          OFFSET 0 14.38658 9.616178
          CHANNELS 3 Zrotation Xrotation Yrotation
          End Site
          {
            OFFSET 0 20 0
          }
        }
      }
      JOINT right_manubrium
      {
        OFFSET -5.722621 16.35077 3.967754
        CHANNELS 3 Zrotation Xrotation Yrotation
        JOINT right_clavicle
        {
          OFFSET -13.16364 1.694482 -4.693211
          CHANNELS 3 Zrotation Xrotation Yrotation
          JOINT right_humerus
          {
            OFFSET -28.5034 -0.3100689 -2.792744
            CHANNELS 3 Zrotation Xrotation Yrotation
            JOINT right_radius
            {
              OFFSET -25.15693 0.02248979 -1.271978
              CHANNELS 3 Zrotation Xrotation Yrotation
              End Site
              {
                OFFSET -15 0 0
              }
            }
          }
        }
      }
      JOINT left_manubrium
      {
        OFFSET 5.722621 16.35077 3.967754
        CHANNELS 3 Zrotation Xrotation Yrotation
        JOINT left_clavicle
        {
          OFFSET 13.16364 1.694482 -4.693211
          CHANNELS 3 Zrotation Xrotation Yrotation
          JOINT left_humerus
          {
            OFFSET 29.39168 -1.063119 -2.237045
            CHANNELS 3 Zrotation Xrotation Yrotation
            JOINT left_radius
            {
              OFFSET 24.59957 -0.9528479 0.9047498
              CHANNELS 3 Zrotation Xrotation Yrotation
              End Site
              {
                OFFSET 15 -0 -0
              }
            }
          }
        }
      }
    }
  }
}
MOTION
Frames: 19
Frame Time: 0.0416666666667
0 103.5113 0 1.098215 -2.9412 -0.09398264 1.971633 -12.95721 7.815932 -0 38.80652 -0 -5.274076 -17.29539 -5.088848 -6.411753 11.79053 -23.40666 -0 6.223211 -0 -0.1042438 -19.70924 23.19513 -1.111471 -1.923513 3.952071 0.6361916 7.388286 -7.220489 1.802468 22.99501 7.64837 4.334498 -23.07727 9.532792 5.654568 -18.83223 9.624202 89.27523 35.45173 -24.53305 -0 0 16.07251 -5.957895 8.999795 1.332112 6.453739 -20.31954 -3.335404 -101.257 43.23295 28.9154 0 0 -25.45194 -8.03195 17.69146 28.1282
0.147087 103.853 1.118501 0.4456402 -2.531756 -0.3041903 3.203776 -15.02779 9.004823 -0 40.34506 -0 -5.658345 -16.38891 -5.874026 -5.929686 11.98159 -23.9534 -0 6.279359 -0 -1.435544 -21.57229 23.69465 -0.7827599 -1.81679 4.13701 0.4643109 7.424171 -7.170349 1.796653 22.87461 7.780813 4.465777 -22.99839 9.576652 5.629998 -18.74063 9.570298 89.49303 35.89806 -24.76609 -0 0 15.88421 -6.112156 9.420929 1.189307 6.714894 -20.60434 -3.219818 -100.9052 43.01573 28.60919 0 0 -26.13751 -7.378702 17.71312 27.60535
0.2808551 104.0306 2.57232 0.070023 -1.379167 -0.3920023 4.103852 -19.23328 8.466268 -0 37.04012 -0 -6.03159 -14.19737 -5.367344 -5.748569 12.34175 -23.19839 -0 5.717081 -0 -0.9218539 -22.87703 22.97724 -1.189461 -1.690816 3.802218 0.9779725 7.337135 -7.300043 1.667339 22.88281 7.660018 4.319932 -23.30378 9.329901 5.738187 -18.45529 9.878471 88.8312 35.60477 -23.98466 -0 0 15.37788 -6.502489 9.21942 2.114749 6.151245 -20.2071 -3.318421 -99.98714 42.08777 27.66339 0 0 -25.04033 -7.528613 17.37023 27.0957
0.3870413 104.0938 4.257475 -0.4077645 -0.5343811 -0.3916043 5.056915 -22.60167 8.389272 -0 35.18709 -0 -6.495027 -12.45953 -5.17917 -5.417858 12.69302 -22.88627 -0 5.573 -0 -1.43024 -24.3017 22.27473 -1.234916 -1.579076 3.730613 1.152982 7.327684 -7.34198 1.598356 22.81606 7.665019 4.311708 -23.42139 9.228348 5.789758 -18.27136 10.01112 88.5984 35.68007 -23.70054 -0 0 15.03269 -6.773387 9.322517 2.519635 6.001689 -20.15253 -3.310933 -99.33499 41.44959 27.02126 0 0 -24.81977 -7.208222 17.18966 26.494
0.4785334 104.0194 6.290195 -0.8033608 0.4054599 -0.2710461 5.795415 -26.10659 7.910138 -0 32.2235 -0 -6.895008 -10.57396 -4.729534 -5.13921 13.13839 -22.27088 -0 5.58539 -0 -1.910924 -25.4235 21.05282 -1.326129 -1.445557 3.611861 1.38097 7.291999 -7.401059 1.515753 22.76724 7.649941 4.281259 -23.55171 9.086567 5.828507 -18.05057 10.17106 88.3134 35.68894 -23.34236 -0 0 14.62275 -7.135757 9.409134 3.032794 5.7775 -20.05234 -3.32023 -98.636 40.77561 26.32024 0 0 -24.49032 -7.040829 16.96608 25.99071
0.5562781 103.8214 8.712166 -1.210262 1.310217 -0.02343262 6.458171 -29.36312 7.401945 -0 29.21392 -0 -7.297795 -8.768563 -4.254724 -4.823284 13.66332 -21.67435 -0 5.925521 -0 -2.757601 -26.32315 19.54285 -1.332618 -1.309227 3.556735 1.529784 7.273953 -7.436355 1.447278 22.70252 7.661424 4.282226 -23.63647 8.97345 5.850417 -17.84945 10.292 88.11835 35.78376 -23.08003 -0 0 14.24052 -7.491584 9.571317 3.44074 5.641075 -20.03056 -3.307271 -97.99268 40.15549 25.68682 0 0 -24.36224 -6.76676 16.76951 25.47091
0.6230222 103.5221 11.61736 -1.605424 2.223887 0.3652601 6.985314 -32.34217 6.749616 -0 25.84813 -0 -7.646311 -6.994916 -3.701328 -4.494395 14.30255 -20.956 -0 6.764682 -0 -3.842555 -26.7515 17.65717 -1.314317 -1.158809 3.517097 1.658339 7.252921 -7.46363 1.380035 22.63925 7.677033 4.289652 -23.69934 8.855013 5.856221 -17.64212 10.40556 87.94095 35.89955 -22.82203 -0 0 13.84368 -7.899344 9.771911 3.849964 5.513792 -20.02818 -3.28922 -97.35447 39.54391 25.06428 0 0 -24.2856 -6.507618 16.56751 24.99056
0.6789028 103.1743 15.09268 -2.011724 3.062376 0.8939136 7.392676 -34.6586 6.035071 -0 22.52778 -0 -7.951538 -5.422238 -3.147031 -4.120904 15.03769 -20.17519 -0 8.382518 -0 -5.256365 -26.47306 15.46114 -1.253616 -0.9950099 3.511481 1.749146 7.236639 -7.474827 1.316533 22.57156 7.703333 4.310872 -23.73309 8.739139 5.847241 -17.43535 10.50607 87.78883 36.06397 -22.5747 -0 0 13.44338 -8.356336 10.02891 4.242912 5.415303 -20.06101 -3.257704 -96.7233 38.93159 24.46266 0 0 -24.29139 -6.208834 16.36674 24.50917
0.7207889 102.8714 19.22571 -2.429425 3.715705 1.53473 7.685423 -35.7952 5.302147 -0 19.60569 -0 -8.207492 -4.259411 -2.669964 -3.685895 15.79508 -19.29307 -0 11.19826 -0 -6.948266 -25.10441 13.07445 -1.16048 -0.8123284 3.535977 1.810861 7.222158 -7.469477 1.252996 22.50267 7.736153 4.341238 -23.73766 8.615913 5.82225 -17.22384 10.60206 87.63776 36.27246 -22.30194 -0 0 13.03138 -8.89799 10.34669 4.654311 5.328581 -20.11795 -3.211638 -96.08093 38.29116 23.86895 0 0 -24.34113 -5.884281 16.15856 24.02458
0.739927 102.7526 24.05654 -2.860297 3.9997 2.208545 7.941861 -35.09472 4.672474 -0 17.7017 -0 -8.469558 -3.826189 -2.394479 -3.169003 16.3366 -18.27669 -0 15.70745 -0 -8.76994 -22.29889 10.80293 -1.034372 -0.6082891 3.599916 1.838798 7.212401 -7.441464 1.187814 22.43259 7.775249 4.380363 -23.70654 8.481541 5.780175 -17.01048 10.69729 87.46887 36.53526 -21.97249 -0 0 12.61439 -9.557392 10.73936 5.104694 5.251641 -20.19809 -3.143539 -95.42018 37.59357 23.28667 0 0 -24.4141 -5.515013 15.94029 23.51168
0.7245096 102.9813 29.52011 -3.281609 3.718315 2.765399 8.279669 -32.11133 4.261639 -0 17.31829 -0 -8.845697 -4.385762 -2.430741 -2.597996 16.1535 -17.01475 -0 22.37484 -0 -10.409 -18.0145 9.081325 -0.8831546 -0.3819672 3.712588 1.829781 7.210478 -7.383187 1.118672 22.36432 7.816703 4.424318 -23.63073 8.328371 5.718675 -16.80281 10.79845 87.24855 36.85464 -21.53341 -0 0 12.20957 -10.38532 11.21811 5.629786 5.175606 -20.29235 -3.044832 -94.73885 36.80285 22.72865 0 0 -24.46138 -5.094332 15.70777 22.95033
0.6789075 103.6776 35.38988 -3.600129 2.780687 3.006535 8.701077 -27.108 4.043662 -0 18.29337 -0 -9.421129 -5.895767 -2.754155 -2.11706 14.44795 -15.39163 -0 31.34147 -0 -11.49829 -12.93754 8.247824 -0.7207587 -0.138858 3.889178 1.775761 7.223417 -7.282962 1.044587 22.30234 7.853853 4.467132 -23.49736 8.149659 5.635088 -16.62119 10.91199 86.93054 37.22652 -20.91382 -0 0 11.86007 -11.43976 11.78806 6.269005 5.093084 -20.38583 -2.904133 -94.05167 35.88209 22.23116 0 0 -24.4113 -4.613499 15.45973 22.3159
0.6547865 104.839 41.3176 -3.570673 1.334802 2.798438 8.857384 -21.15491 3.766182 -0 19.34522 -0 -10.0295 -7.824009 -3.070248 -2.002877 10.49381 -13.49227 -0 42.03419 -0 -11.74138 -8.453298 8.270403 -0.5728737 0.1056006 4.147227 1.666521 7.262117 -7.126585 0.9669775 22.25296 7.874941 4.499379 -23.29315 7.940122 5.526855 -16.50273 11.04361 86.45517 37.62836 -20.02656 -0 0 11.64313 -12.77569 12.43551 7.062568 4.996526 -20.45205 -2.711255 -93.39553 34.80342 21.85724 0 0 -24.16341 -4.073243 15.19738 21.58921
0.7325095 106.3348 47.00942 -2.880193 -0.26176 2.227951 8.193279 -15.30845 3.185204 -0 18.85727 -0 -10.23545 -9.408577 -2.944151 -2.439986 4.374887 -11.70839 -0 52.69323 -0 -11.00348 -5.730476 8.864406 -0.4737742 0.324498 4.501557 1.492394 7.340689 -6.901465 0.8911265 22.22086 7.864741 4.510425 -23.01178 7.700265 5.393264 -16.49901 11.19489 85.76627 38.0123 -18.79617 -0 0 11.66485 -14.41363 13.11648 8.032047 4.883353 -20.45554 -2.463569 -92.8276 33.56476 21.6869 0 0 -23.61462 -3.484346 14.92284 20.76235
0.9247328 107.9703 52.38562 -1.548937 -1.686747 1.55984 6.688067 -9.831019 2.44066 -0 16.46273 -0 -9.746102 -10.23499 -2.329074 -3.146927 -2.7487 -10.26591 -0 60.47525 -0 -9.460882 -4.780718 9.948498 -0.4558933 0.486728 4.951901 1.25333 7.471441 -6.605715 0.825374 22.2043 7.809465 4.492506 -22.66425 7.438529 5.237759 -16.65695 11.3611 84.84412 38.30645 -17.20796 -0 0 12.02016 -16.30317 13.75548 9.159125 4.757305 -20.36212 -2.175457 -92.40269 32.20229 21.77929 0 0 -22.71012 -2.870874 14.63159 19.84967
1.149897 109.4962 57.53885 -0.1063752 -2.882947 0.9804083 5.114564 -4.533802 1.973386 -0 13.181 -0 -8.62043 -10.59343 -1.714396 -3.410873 -9.541786 -8.884896 -0 62.87258 -0 -7.667755 -4.832477 11.65417 -0.5354027 0.5723813 5.47179 0.9676722 7.658146 -6.256217 0.7777004 22.19324 7.703182 4.444477 -22.28189 7.168706 5.069452 -16.98949 11.53227 83.73632 38.43461 -15.34778 -0 0 12.73169 -18.31313 14.26682 10.37882 4.623456 -20.15505 -1.8827 -92.13963 30.7856 22.12658 0 0 -21.48968 -2.271092 14.30538 18.89691
1.341023 110.6048 62.59348 0.84965 -3.943029 0.4938668 4.220979 0.6452004 1.978386 -0 10.14073 -0 -7.110407 -11.20856 -1.485376 -2.688709 -15.39006 -7.266902 -0 59.07762 -0 -6.248016 -5.26597 13.87388 -0.7065847 0.5840973 6.011862 0.6699061 7.894015 -5.886403 0.7525921 22.17413 7.550008 4.371738 -21.90406 6.903544 4.901965 -17.46238 11.69747 82.55205 38.34585 -13.38522 -0 0 13.72202 -20.27413 14.5897 11.60105 4.480045 -19.84364 -1.634013 -92.00639 29.39411 22.64455 0 0 -20.07952 -1.733438 13.91655 17.97872
1.521128 111.0414 67.65172 1.065929 -4.791116 0.01329656 4.141052 5.527831 2.213893 -0 7.969687 -0 -5.59737 -12.58028 -1.524069 -1.035597 -20.23179 -5.491676 -0 50.07273 -0 -5.48397 -5.792564 16.13005 -0.9481171 0.5433604 6.518199 0.3966424 8.166766 -5.533998 0.7506843 22.13657 7.361442 4.283078 -21.56012 6.651404 4.750318 -18.01064 11.84864 81.41943 38.03289 -11.50905 -0 0 14.84897 -22.04205 14.71026 12.74338 4.318327 -19.45844 -1.473423 -91.93877 28.09217 23.21151 0 0 -18.63634 -1.301838 13.44311 17.17567
1.766844 110.7616 72.82556 0.6782744 -5.159261 -0.5329271 4.507614 9.774974 2.333889 -0 7.016174 -0 -4.445847 -14.57606 -1.489701 0.9753604 -24.01696 -3.871476 -0 38.28938 -0 -5.20564 -6.169864 17.86725 -1.233313 0.4774308 6.949886 0.1735828 8.464883 -5.229255 0.7699809 22.07637 7.152414 4.187287 -21.26074 6.417611 4.627525 -18.56648 11.98174 80.44179 37.52763 -9.868552 -0 0 15.9662 -23.53516 14.65797 13.75125 4.130028 -19.03892 -1.426793 -91.87123 26.9179 23.71687 0 0 -17.29362 -1.0007 12.87982 16.54651
